<?xml version="1.0" encoding="utf-8"?>
<!-- Generator: Adobe Illustrator 22.0.0, SVG Export Plug-In . SVG Version: 6.00 Build 0)  -->
<svg version="1.1" id="Layer_1" xmlns="http://www.w3.org/2000/svg" xmlns:xlink="http://www.w3.org/1999/xlink" x="0px" y="0px"
	 width="240px" height="320px" viewBox="0 0 240 320" style="enable-background:new 0 0 240 320;" xml:space="preserve">
<style type="text/css">
	.st0{fill:none;}
	.st1{fill:#3F3F3F;}
	.st2{opacity:0.7;fill:#E0E0E0;}
	.st3{fill:#E0E0E0;}
</style>
<path class="st0" d="M96,136h48v48H96V136z"/>
<rect x="-2.5" y="-21.4" class="st1" width="246" height="352.1"/>
<path class="st2" d="M131.5,146.4c-0.4-0.3-4.9-4-11.5-4c-1.5,0-2.9,0.2-4.1,0.5l10.2,10.2C126.1,153.2,131.5,146.4,131.5,146.4z
	 M111.4,140.9l-1.3,1.3l2,2c-2.1,1-3.4,2-3.7,2.2l11.5,14.3l0,0l0,0l3.9-4.8l3.3,3.3l1.3-1.3C128.4,158,111.4,140.9,111.4,140.9z"/>
<g>
	<path class="st3" d="M82.2,182.4v-8.7h5.5v1h-4.3v2.7h4v1h-4v3.9H82.2z"/>
	<path class="st3" d="M94.5,176.2v6.2h-1.2v-1.1c-0.2,0.4-0.4,0.6-0.8,0.8c-0.4,0.2-0.8,0.3-1.2,0.3c-0.5,0-1-0.1-1.4-0.4
		c-0.4-0.3-0.7-0.6-1-1.1c-0.2-0.5-0.3-1-0.3-1.7c0-0.6,0.1-1.2,0.3-1.7c0.2-0.5,0.6-0.9,1-1.1c0.4-0.3,0.9-0.4,1.4-0.4
		c0.5,0,0.9,0.1,1.2,0.3c0.4,0.2,0.6,0.5,0.8,0.9v-1H94.5z M92.8,180.9c0.3-0.4,0.5-0.9,0.5-1.6c0-0.7-0.2-1.3-0.5-1.6
		c-0.3-0.4-0.7-0.6-1.3-0.6c-0.6,0-1,0.2-1.3,0.6c-0.3,0.4-0.5,0.9-0.5,1.6c0,0.7,0.2,1.2,0.5,1.6c0.3,0.4,0.8,0.6,1.3,0.6
		C92.1,181.5,92.5,181.3,92.8,180.9z"/>
	<path class="st3" d="M96.2,173.5h1.4v1.3h-1.4V173.5z M96.3,182.4v-6.2h1.2v6.2H96.3z"/>
	<path class="st3" d="M99.4,182.4v-9h1.2v9H99.4z"/>
	<path class="st3" d="M107.6,179.3h-4.4c0,1.4,0.7,2.2,2,2.2c0.7,0,1.4-0.2,1.9-0.7l0.4,0.9c-0.3,0.2-0.6,0.4-1.1,0.6
		c-0.4,0.1-0.9,0.2-1.3,0.2c-1,0-1.8-0.3-2.3-0.9c-0.6-0.6-0.8-1.3-0.8-2.3c0-0.6,0.1-1.2,0.4-1.7c0.2-0.5,0.6-0.9,1-1.1
		c0.4-0.3,1-0.4,1.5-0.4c0.8,0,1.5,0.3,2,0.8c0.5,0.5,0.7,1.3,0.7,2.2V179.3z M103.9,177.4c-0.3,0.3-0.5,0.7-0.6,1.2h3.3
		c0-0.5-0.2-0.9-0.5-1.2c-0.3-0.3-0.6-0.4-1.1-0.4C104.5,177,104.2,177.1,103.9,177.4z"/>
	<path class="st3" d="M114.7,173.4v9h-1.2v-1.1c-0.2,0.4-0.4,0.6-0.8,0.8c-0.4,0.2-0.8,0.3-1.2,0.3c-0.5,0-1-0.1-1.4-0.4
		c-0.4-0.3-0.7-0.6-1-1.1c-0.2-0.5-0.3-1-0.3-1.7c0-0.6,0.1-1.2,0.3-1.7c0.2-0.5,0.5-0.9,1-1.1c0.4-0.3,0.9-0.4,1.4-0.4
		c0.5,0,0.9,0.1,1.2,0.3c0.4,0.2,0.6,0.5,0.8,0.8v-3.8H114.7z M113,180.9c0.3-0.4,0.5-0.9,0.5-1.6c0-0.7-0.2-1.2-0.5-1.6
		c-0.3-0.4-0.7-0.6-1.3-0.6c-0.6,0-1,0.2-1.3,0.6c-0.3,0.4-0.5,0.9-0.5,1.6c0,0.7,0.2,1.3,0.5,1.6s0.7,0.6,1.3,0.6
		C112.3,181.5,112.7,181.3,113,180.9z"/>
	<path class="st3" d="M121.4,177.2v3.1c0,0.4,0.1,0.7,0.3,0.9c0.2,0.2,0.4,0.3,0.8,0.3c0.2,0,0.4,0,0.6-0.1v1
		c-0.3,0.1-0.6,0.1-0.9,0.1c-0.6,0-1.1-0.2-1.5-0.5c-0.4-0.4-0.5-0.9-0.5-1.6v-3.2H119v-1h1.2v-1.5l1.2-0.4v2h1.7v1H121.4z"/>
	<path class="st3" d="M125.3,182.1c-0.5-0.3-0.8-0.6-1.1-1.1c-0.2-0.5-0.4-1-0.4-1.7c0-0.6,0.1-1.2,0.4-1.7c0.2-0.5,0.6-0.9,1.1-1.1
		c0.5-0.3,1-0.4,1.6-0.4c0.6,0,1.1,0.1,1.6,0.4c0.5,0.3,0.8,0.6,1.1,1.1c0.2,0.5,0.4,1,0.4,1.7c0,0.6-0.1,1.2-0.4,1.7
		c-0.3,0.5-0.6,0.9-1.1,1.1c-0.5,0.3-1,0.4-1.6,0.4C126.3,182.5,125.7,182.4,125.3,182.1z M128.2,181c0.3-0.4,0.5-0.9,0.5-1.7
		c0-0.7-0.2-1.3-0.5-1.6c-0.3-0.4-0.7-0.6-1.3-0.6c-0.6,0-1,0.2-1.3,0.6c-0.3,0.4-0.5,0.9-0.5,1.6c0,0.7,0.2,1.3,0.5,1.7
		c0.3,0.4,0.7,0.6,1.3,0.6C127.4,181.5,127.9,181.3,128.2,181z"/>
	<path class="st3" d="M134.6,182.4v-9h1.2v9H134.6z"/>
	<path class="st3" d="M138.7,182.1c-0.5-0.3-0.8-0.6-1.1-1.1c-0.2-0.5-0.4-1-0.4-1.7c0-0.6,0.1-1.2,0.4-1.7c0.2-0.5,0.6-0.9,1.1-1.1
		c0.5-0.3,1-0.4,1.6-0.4c0.6,0,1.1,0.1,1.6,0.4c0.5,0.3,0.8,0.6,1.1,1.1c0.2,0.5,0.4,1,0.4,1.7c0,0.6-0.1,1.2-0.4,1.7
		c-0.3,0.5-0.6,0.9-1.1,1.1c-0.5,0.3-1,0.4-1.6,0.4C139.7,182.5,139.2,182.4,138.7,182.1z M141.6,181c0.3-0.4,0.5-0.9,0.5-1.7
		c0-0.7-0.2-1.3-0.5-1.6c-0.3-0.4-0.7-0.6-1.3-0.6c-0.6,0-1,0.2-1.3,0.6c-0.3,0.4-0.5,0.9-0.5,1.6c0,0.7,0.2,1.3,0.5,1.7
		c0.3,0.4,0.7,0.6,1.3,0.6C140.8,181.5,141.3,181.3,141.6,181z"/>
	<path class="st3" d="M150.4,176.2v6.2h-1.2v-1.1c-0.2,0.4-0.4,0.6-0.8,0.8c-0.4,0.2-0.8,0.3-1.2,0.3c-0.5,0-1-0.1-1.4-0.4
		c-0.4-0.3-0.7-0.6-1-1.1c-0.2-0.5-0.3-1-0.3-1.7c0-0.6,0.1-1.2,0.3-1.7c0.2-0.5,0.6-0.9,1-1.1c0.4-0.3,0.9-0.4,1.4-0.4
		c0.5,0,0.9,0.1,1.2,0.3c0.4,0.2,0.6,0.5,0.8,0.9v-1H150.4z M148.7,180.9c0.3-0.4,0.5-0.9,0.5-1.6c0-0.7-0.2-1.3-0.5-1.6
		c-0.3-0.4-0.7-0.6-1.3-0.6c-0.6,0-1,0.2-1.3,0.6c-0.3,0.4-0.5,0.9-0.5,1.6c0,0.7,0.2,1.2,0.5,1.6c0.3,0.4,0.8,0.6,1.3,0.6
		C148,181.5,148.4,181.3,148.7,180.9z"/>
	<path class="st3" d="M157.8,173.4v9h-1.2v-1.1c-0.2,0.4-0.4,0.6-0.8,0.8c-0.4,0.2-0.8,0.3-1.2,0.3c-0.5,0-1-0.1-1.4-0.4
		c-0.4-0.3-0.7-0.6-1-1.1c-0.2-0.5-0.3-1-0.3-1.7c0-0.6,0.1-1.2,0.3-1.7c0.2-0.5,0.5-0.9,1-1.1c0.4-0.3,0.9-0.4,1.4-0.4
		c0.5,0,0.9,0.1,1.2,0.3c0.4,0.2,0.6,0.5,0.8,0.8v-3.8H157.8z M156.2,180.9c0.3-0.4,0.5-0.9,0.5-1.6c0-0.7-0.2-1.2-0.5-1.6
		s-0.7-0.6-1.3-0.6c-0.6,0-1,0.2-1.3,0.6c-0.3,0.4-0.5,0.9-0.5,1.6c0,0.7,0.2,1.3,0.5,1.6c0.3,0.4,0.7,0.6,1.3,0.6
		C155.4,181.5,155.8,181.3,156.2,180.9z"/>
</g>
</svg>
