<?xml version="1.0" encoding="utf-8"?>
<!-- Generator: Adobe Illustrator 22.0.0, SVG Export Plug-In . SVG Version: 6.00 Build 0)  -->
<svg version="1.1" id="Layer_1" xmlns="http://www.w3.org/2000/svg" xmlns:xlink="http://www.w3.org/1999/xlink" x="0px" y="0px"
	 width="250px" height="250px" viewBox="0 0 250 250" style="enable-background:new 0 0 250 250;" xml:space="preserve">
<style type="text/css">
	.st0{fill:none;}
	.st1{fill:#3F3F3F;}
	.st2{opacity:0.7;fill:#E0E0E0;}
	.st3{fill:#E0E0E0;}
</style>
<path class="st0" d="M106,101h48v48h-48V101z"/>
<rect x="-2.5" y="-51.1" class="st1" width="255" height="352.1"/>
<g>
	<path class="st2" d="M134.8,112c-0.3-0.3-4.2-3.4-9.8-3.4c-1.3,0-2.5,0.2-3.5,0.4l8.7,8.7C130.2,117.8,134.8,112,134.8,112z
		 M117.7,107.3l-1.1,1.1l1.7,1.7c-1.8,0.9-2.9,1.7-3.2,1.9l9.8,12.2l0,0l0,0l3.3-4.1l2.8,2.8l1.1-1.1
		C132.2,121.9,117.7,107.3,117.7,107.3z"/>
	<g>
		<path class="st3" d="M92.8,142.6v-7.4h4.7v0.9h-3.6v2.3h3.4v0.9h-3.4v3.3H92.8z"/>
		<path class="st3" d="M103.3,137.4v5.3h-1v-0.9c-0.2,0.3-0.4,0.6-0.7,0.7c-0.3,0.2-0.7,0.3-1.1,0.3c-0.5,0-0.9-0.1-1.2-0.3
			c-0.4-0.2-0.6-0.5-0.8-0.9c-0.2-0.4-0.3-0.9-0.3-1.4c0-0.5,0.1-1,0.3-1.4c0.2-0.4,0.5-0.7,0.8-1c0.4-0.2,0.8-0.3,1.2-0.3
			c0.4,0,0.8,0.1,1.1,0.3c0.3,0.2,0.5,0.4,0.7,0.7v-0.9H103.3z M101.8,141.4c0.3-0.3,0.4-0.8,0.4-1.4c0-0.6-0.1-1.1-0.4-1.4
			c-0.3-0.3-0.6-0.5-1.1-0.5c-0.5,0-0.8,0.2-1.1,0.5c-0.3,0.3-0.4,0.8-0.4,1.4c0,0.6,0.1,1,0.4,1.4c0.3,0.3,0.6,0.5,1.1,0.5
			C101.2,141.9,101.6,141.7,101.8,141.4z"/>
		<path class="st3" d="M104.7,135.1h1.2v1.1h-1.2V135.1z M104.8,142.6v-5.3h1v5.3H104.8z"/>
		<path class="st3" d="M107.4,142.6V135h1v7.7H107.4z"/>
		<path class="st3" d="M114.5,140h-3.8c0,1.2,0.6,1.8,1.7,1.8c0.6,0,1.2-0.2,1.7-0.6l0.3,0.8c-0.2,0.2-0.5,0.4-0.9,0.5
			c-0.4,0.1-0.7,0.2-1.1,0.2c-0.8,0-1.5-0.2-2-0.7c-0.5-0.5-0.7-1.1-0.7-2c0-0.5,0.1-1,0.3-1.4c0.2-0.4,0.5-0.7,0.9-1
			c0.4-0.2,0.8-0.3,1.3-0.3c0.7,0,1.3,0.2,1.7,0.7c0.4,0.5,0.6,1.1,0.6,1.9V140z M111.2,138.4c-0.3,0.2-0.4,0.6-0.5,1h2.8
			c0-0.4-0.2-0.8-0.4-1c-0.2-0.2-0.5-0.3-0.9-0.3C111.8,138,111.5,138.2,111.2,138.4z"/>
		<path class="st3" d="M120.5,135v7.7h-1v-0.9c-0.2,0.3-0.4,0.6-0.7,0.7c-0.3,0.2-0.7,0.3-1.1,0.3c-0.5,0-0.9-0.1-1.2-0.3
			c-0.4-0.2-0.6-0.5-0.8-1c-0.2-0.4-0.3-0.9-0.3-1.4s0.1-1,0.3-1.4c0.2-0.4,0.5-0.7,0.8-0.9c0.4-0.2,0.8-0.3,1.2-0.3
			c0.4,0,0.7,0.1,1,0.2c0.3,0.2,0.5,0.4,0.7,0.7V135H120.5z M119.1,141.4c0.3-0.3,0.4-0.8,0.4-1.4c0-0.6-0.1-1.1-0.4-1.4
			s-0.6-0.5-1.1-0.5c-0.5,0-0.9,0.2-1.1,0.5c-0.3,0.3-0.4,0.8-0.4,1.4c0,0.6,0.1,1.1,0.4,1.4s0.6,0.5,1.1,0.5
			C118.4,141.9,118.8,141.7,119.1,141.4z"/>
		<path class="st3" d="M126.2,138.2v2.6c0,0.4,0.1,0.6,0.2,0.8c0.2,0.1,0.4,0.2,0.7,0.2c0.2,0,0.4,0,0.6-0.1v0.9
			c-0.2,0.1-0.5,0.1-0.8,0.1c-0.5,0-1-0.2-1.3-0.5s-0.4-0.8-0.4-1.3v-2.7h-1v-0.8h1v-1.3l1.1-0.4v1.7h1.4v0.8H126.2z"/>
		<path class="st3" d="M129.5,142.4c-0.4-0.2-0.7-0.5-0.9-0.9s-0.3-0.9-0.3-1.4c0-0.5,0.1-1,0.3-1.4c0.2-0.4,0.5-0.7,0.9-1
			c0.4-0.2,0.8-0.3,1.4-0.3c0.5,0,1,0.1,1.3,0.3c0.4,0.2,0.7,0.5,0.9,1c0.2,0.4,0.3,0.9,0.3,1.4c0,0.5-0.1,1-0.3,1.4
			c-0.2,0.4-0.5,0.7-0.9,0.9c-0.4,0.2-0.8,0.3-1.3,0.3C130.3,142.7,129.9,142.6,129.5,142.4z M132,141.4c0.3-0.3,0.4-0.8,0.4-1.4
			c0-0.6-0.1-1.1-0.4-1.4c-0.3-0.3-0.6-0.5-1.1-0.5c-0.5,0-0.9,0.2-1.1,0.5c-0.3,0.3-0.4,0.8-0.4,1.4c0,0.6,0.1,1.1,0.4,1.4
			c0.3,0.3,0.6,0.5,1.1,0.5C131.3,141.9,131.7,141.7,132,141.4z"/>
		<path class="st3" d="M137.4,142.6V135h1v7.7H137.4z"/>
		<path class="st3" d="M140.9,142.4c-0.4-0.2-0.7-0.5-0.9-0.9s-0.3-0.9-0.3-1.4c0-0.5,0.1-1,0.3-1.4c0.2-0.4,0.5-0.7,0.9-1
			c0.4-0.2,0.8-0.3,1.4-0.3c0.5,0,1,0.1,1.3,0.3c0.4,0.2,0.7,0.5,0.9,1c0.2,0.4,0.3,0.9,0.3,1.4c0,0.5-0.1,1-0.3,1.4
			c-0.2,0.4-0.5,0.7-0.9,0.9c-0.4,0.2-0.8,0.3-1.3,0.3C141.8,142.7,141.3,142.6,140.9,142.4z M143.4,141.4c0.3-0.3,0.4-0.8,0.4-1.4
			c0-0.6-0.1-1.1-0.4-1.4c-0.3-0.3-0.6-0.5-1.1-0.5c-0.5,0-0.9,0.2-1.1,0.5c-0.3,0.3-0.4,0.8-0.4,1.4c0,0.6,0.1,1.1,0.4,1.4
			c0.3,0.3,0.6,0.5,1.1,0.5C142.8,141.9,143.1,141.7,143.4,141.4z"/>
		<path class="st3" d="M150.9,137.4v5.3h-1v-0.9c-0.2,0.3-0.4,0.6-0.7,0.7c-0.3,0.2-0.7,0.3-1.1,0.3c-0.5,0-0.9-0.1-1.2-0.3
			c-0.4-0.2-0.6-0.5-0.8-0.9c-0.2-0.4-0.3-0.9-0.3-1.4c0-0.5,0.1-1,0.3-1.4c0.2-0.4,0.5-0.7,0.8-1s0.8-0.3,1.2-0.3
			c0.4,0,0.8,0.1,1.1,0.3c0.3,0.2,0.5,0.4,0.7,0.7v-0.9H150.9z M149.5,141.4c0.3-0.3,0.4-0.8,0.4-1.4c0-0.6-0.1-1.1-0.4-1.4
			c-0.3-0.3-0.6-0.5-1.1-0.5c-0.5,0-0.8,0.2-1.1,0.5c-0.3,0.3-0.4,0.8-0.4,1.4c0,0.6,0.1,1,0.4,1.4c0.3,0.3,0.6,0.5,1.1,0.5
			C148.8,141.9,149.2,141.7,149.5,141.4z"/>
		<path class="st3" d="M157.2,135v7.7h-1v-0.9c-0.2,0.3-0.4,0.6-0.7,0.7c-0.3,0.2-0.7,0.3-1.1,0.3c-0.5,0-0.9-0.1-1.2-0.3
			s-0.6-0.5-0.8-1c-0.2-0.4-0.3-0.9-0.3-1.4s0.1-1,0.3-1.4c0.2-0.4,0.5-0.7,0.8-0.9c0.4-0.2,0.8-0.3,1.2-0.3c0.4,0,0.7,0.1,1,0.2
			c0.3,0.2,0.5,0.4,0.7,0.7V135H157.2z M155.8,141.4c0.3-0.3,0.4-0.8,0.4-1.4c0-0.6-0.1-1.1-0.4-1.4c-0.3-0.3-0.6-0.5-1.1-0.5
			c-0.5,0-0.9,0.2-1.1,0.5c-0.3,0.3-0.4,0.8-0.4,1.4c0,0.6,0.1,1.1,0.4,1.4s0.6,0.5,1.1,0.5C155.2,141.9,155.5,141.7,155.8,141.4z"
			/>
	</g>
</g>
</svg>
