<?xml version="1.0" encoding="utf-8"?>
<!-- Generator: Adobe Illustrator 22.0.0, SVG Export Plug-In . SVG Version: 6.00 Build 0)  -->
<svg version="1.1" id="Layer_1" xmlns="http://www.w3.org/2000/svg" xmlns:xlink="http://www.w3.org/1999/xlink" x="0px" y="0px"
	 width="250px" height="250px" viewBox="0 0 250 250" style="enable-background:new 0 0 250 250;" xml:space="preserve">
<style type="text/css">
	.st0{fill:none;}
	.st1{fill:#3F3F3F;}
	.st2{opacity:0.7;fill:#E0E0E0;}
	.st3{fill:#E0E0E0;}
</style>
<path class="st0" d="M106,101h48v48h-48V101z"/>
<rect x="-2.5" y="-51.1" class="st1" width="255" height="352.1"/>
<g>
	<path class="st2" d="M132.1,115.6c-0.2-0.2-3-2.5-7.1-2.5c-0.9,0-1.8,0.1-2.5,0.3l6.3,6.3C128.8,119.8,132.1,115.6,132.1,115.6z
		 M119.7,112.2l-0.8,0.8l1.2,1.2c-1.3,0.6-2.1,1.2-2.3,1.4l7.1,8.8l0,0l0,0l2.4-3l2,2l0.8-0.8C130.2,122.7,119.7,112.2,119.7,112.2z
		"/>
	<g>
		<path class="st3" d="M101.6,137.8v-5.4h3.4v0.6h-2.6v1.7h2.5v0.6h-2.5v2.4H101.6z"/>
		<path class="st3" d="M109.3,134v3.8h-0.8v-0.6c-0.1,0.2-0.3,0.4-0.5,0.5c-0.2,0.1-0.5,0.2-0.8,0.2c-0.3,0-0.6-0.1-0.9-0.2
			c-0.3-0.2-0.5-0.4-0.6-0.7c-0.1-0.3-0.2-0.6-0.2-1c0-0.4,0.1-0.7,0.2-1c0.1-0.3,0.3-0.5,0.6-0.7c0.3-0.2,0.5-0.2,0.9-0.2
			c0.3,0,0.5,0.1,0.8,0.2c0.2,0.1,0.4,0.3,0.5,0.5V134H109.3z M108.2,136.9c0.2-0.2,0.3-0.6,0.3-1c0-0.4-0.1-0.8-0.3-1
			c-0.2-0.2-0.5-0.4-0.8-0.4c-0.3,0-0.6,0.1-0.8,0.4c-0.2,0.2-0.3,0.6-0.3,1c0,0.4,0.1,0.8,0.3,1c0.2,0.2,0.5,0.4,0.8,0.4
			C107.8,137.2,108,137.1,108.2,136.9z"/>
		<path class="st3" d="M110.3,132.3h0.9v0.8h-0.9V132.3z M110.4,137.8V134h0.8v3.8H110.4z"/>
		<path class="st3" d="M112.3,137.8v-5.6h0.8v5.6H112.3z"/>
		<path class="st3" d="M117.4,135.9h-2.7c0,0.9,0.4,1.3,1.2,1.3c0.4,0,0.8-0.1,1.2-0.4l0.2,0.5c-0.2,0.2-0.4,0.3-0.7,0.4
			c-0.3,0.1-0.5,0.1-0.8,0.1c-0.6,0-1.1-0.2-1.4-0.5c-0.3-0.4-0.5-0.8-0.5-1.4c0-0.4,0.1-0.7,0.2-1c0.2-0.3,0.4-0.5,0.6-0.7
			c0.3-0.2,0.6-0.2,0.9-0.2c0.5,0,0.9,0.2,1.2,0.5c0.3,0.3,0.4,0.8,0.4,1.4V135.9z M115,134.7c-0.2,0.2-0.3,0.4-0.3,0.7h2
			c0-0.3-0.1-0.6-0.3-0.7c-0.2-0.2-0.4-0.3-0.7-0.3C115.5,134.5,115.2,134.5,115,134.7z"/>
		<path class="st3" d="M121.7,132.2v5.6H121v-0.6c-0.1,0.2-0.3,0.4-0.5,0.5c-0.2,0.1-0.5,0.2-0.8,0.2c-0.3,0-0.6-0.1-0.9-0.2
			c-0.3-0.2-0.5-0.4-0.6-0.7c-0.1-0.3-0.2-0.6-0.2-1s0.1-0.7,0.2-1c0.1-0.3,0.3-0.5,0.6-0.7c0.3-0.2,0.5-0.2,0.9-0.2
			c0.3,0,0.5,0.1,0.8,0.2c0.2,0.1,0.4,0.3,0.5,0.5v-2.4H121.7z M120.7,136.9c0.2-0.2,0.3-0.6,0.3-1c0-0.4-0.1-0.8-0.3-1
			c-0.2-0.2-0.5-0.4-0.8-0.4c-0.3,0-0.6,0.1-0.8,0.4c-0.2,0.2-0.3,0.6-0.3,1c0,0.4,0.1,0.8,0.3,1s0.5,0.4,0.8,0.4
			C120.2,137.2,120.5,137.1,120.7,136.9z"/>
		<path class="st3" d="M125.9,134.6v1.9c0,0.3,0.1,0.4,0.2,0.6s0.3,0.2,0.5,0.2c0.1,0,0.3,0,0.4-0.1v0.6c-0.2,0.1-0.4,0.1-0.6,0.1
			c-0.4,0-0.7-0.1-0.9-0.3c-0.2-0.2-0.3-0.5-0.3-1v-2h-0.7V134h0.7v-1l0.8-0.3v1.2h1v0.6H125.9z"/>
		<path class="st3" d="M128.3,137.6c-0.3-0.2-0.5-0.4-0.7-0.7c-0.2-0.3-0.2-0.6-0.2-1c0-0.4,0.1-0.7,0.2-1c0.2-0.3,0.4-0.5,0.7-0.7
			c0.3-0.2,0.6-0.2,1-0.2c0.4,0,0.7,0.1,1,0.2c0.3,0.2,0.5,0.4,0.7,0.7c0.2,0.3,0.2,0.6,0.2,1c0,0.4-0.1,0.7-0.2,1
			c-0.2,0.3-0.4,0.5-0.7,0.7c-0.3,0.2-0.6,0.2-1,0.2C128.9,137.8,128.5,137.8,128.3,137.6z M130,136.9c0.2-0.2,0.3-0.6,0.3-1
			c0-0.4-0.1-0.8-0.3-1c-0.2-0.2-0.5-0.4-0.8-0.4c-0.3,0-0.6,0.1-0.8,0.4c-0.2,0.2-0.3,0.6-0.3,1c0,0.4,0.1,0.8,0.3,1
			c0.2,0.2,0.5,0.3,0.8,0.3C129.6,137.2,129.9,137.1,130,136.9z"/>
		<path class="st3" d="M134,137.8v-5.6h0.8v5.6H134z"/>
		<path class="st3" d="M136.5,137.6c-0.3-0.2-0.5-0.4-0.7-0.7c-0.2-0.3-0.2-0.6-0.2-1c0-0.4,0.1-0.7,0.2-1c0.2-0.3,0.4-0.5,0.7-0.7
			s0.6-0.2,1-0.2c0.4,0,0.7,0.1,1,0.2c0.3,0.2,0.5,0.4,0.7,0.7c0.2,0.3,0.2,0.6,0.2,1c0,0.4-0.1,0.7-0.2,1c-0.2,0.3-0.4,0.5-0.7,0.7
			c-0.3,0.2-0.6,0.2-1,0.2C137.2,137.8,136.8,137.8,136.5,137.6z M138.3,136.9c0.2-0.2,0.3-0.6,0.3-1c0-0.4-0.1-0.8-0.3-1
			c-0.2-0.2-0.5-0.4-0.8-0.4c-0.3,0-0.6,0.1-0.8,0.4c-0.2,0.2-0.3,0.6-0.3,1c0,0.4,0.1,0.8,0.3,1c0.2,0.2,0.5,0.3,0.8,0.3
			C137.9,137.2,138.1,137.1,138.3,136.9z"/>
		<path class="st3" d="M143.8,134v3.8H143v-0.6c-0.1,0.2-0.3,0.4-0.5,0.5c-0.2,0.1-0.5,0.2-0.8,0.2c-0.3,0-0.6-0.1-0.9-0.2
			c-0.3-0.2-0.5-0.4-0.6-0.7c-0.1-0.3-0.2-0.6-0.2-1c0-0.4,0.1-0.7,0.2-1c0.1-0.3,0.3-0.5,0.6-0.7c0.3-0.2,0.5-0.2,0.9-0.2
			c0.3,0,0.5,0.1,0.8,0.2c0.2,0.1,0.4,0.3,0.5,0.5V134H143.8z M142.7,136.9c0.2-0.2,0.3-0.6,0.3-1c0-0.4-0.1-0.8-0.3-1
			c-0.2-0.2-0.5-0.4-0.8-0.4c-0.3,0-0.6,0.1-0.8,0.4c-0.2,0.2-0.3,0.6-0.3,1c0,0.4,0.1,0.8,0.3,1c0.2,0.2,0.5,0.4,0.8,0.4
			C142.3,137.2,142.5,137.1,142.7,136.9z"/>
		<path class="st3" d="M148.4,132.2v5.6h-0.8v-0.6c-0.1,0.2-0.3,0.4-0.5,0.5c-0.2,0.1-0.5,0.2-0.8,0.2c-0.3,0-0.6-0.1-0.9-0.2
			c-0.3-0.2-0.5-0.4-0.6-0.7c-0.1-0.3-0.2-0.6-0.2-1s0.1-0.7,0.2-1c0.1-0.3,0.3-0.5,0.6-0.7c0.3-0.2,0.5-0.2,0.9-0.2
			c0.3,0,0.5,0.1,0.8,0.2c0.2,0.1,0.4,0.3,0.5,0.5v-2.4H148.4z M147.3,136.9c0.2-0.2,0.3-0.6,0.3-1c0-0.4-0.1-0.8-0.3-1
			c-0.2-0.2-0.5-0.4-0.8-0.4c-0.3,0-0.6,0.1-0.8,0.4c-0.2,0.2-0.3,0.6-0.3,1c0,0.4,0.1,0.8,0.3,1c0.2,0.2,0.5,0.4,0.8,0.4
			C146.9,137.2,147.1,137.1,147.3,136.9z"/>
	</g>
</g>
</svg>
