<svg id="Layer_1" data-name="Layer 1" xmlns="http://www.w3.org/2000/svg" width="250" height="250" viewBox="0 0 250 250"><defs><style>.cls-1{fill:none;}.cls-2{fill:#3f3f3f;}.cls-3,.cls-4{fill:#e0e0e0;}.cls-3{opacity:0.7;}</style></defs><title>failed_to_load_sq_small-02</title><path class="cls-1" d="M106,101h48v48H106Z"/><rect class="cls-2" x="-2.5" y="-51.05" width="255" height="352.1"/><path class="cls-3" d="M137.27,108.67A20.46,20.46,0,0,0,125,104.41a18.25,18.25,0,0,0-4.38.53l10.89,10.89C131.51,115.93,137.27,108.67,137.27,108.67Zm-21.45-5.87-1.39,1.39,2.14,2.14a25.17,25.17,0,0,0-3.95,2.34l12.27,15.27h0l4.17-5.13,3.52,3.53L134,121C134,121.06,115.82,102.8,115.82,102.8Z"/><path class="cls-4" d="M84.62,147.1v-9.29h5.9v1.11H86v2.91h4.31v1.11H86v4.16Z"/><path class="cls-4" d="M97.8,140.52v6.58H96.49V146a2.06,2.06,0,0,1-.85.9,2.73,2.73,0,0,1-1.33.32,2.79,2.79,0,0,1-1.53-.42,2.82,2.82,0,0,1-1-1.18,4.17,4.17,0,0,1-.36-1.79,4.11,4.11,0,0,1,.37-1.8,2.8,2.8,0,0,1,1-1.21,2.67,2.67,0,0,1,1.51-.43,2.58,2.58,0,0,1,1.32.32,2.14,2.14,0,0,1,.86.9v-1.07Zm-1.8,5A3.35,3.35,0,0,0,96,142a1.68,1.68,0,0,0-1.39-.62,1.66,1.66,0,0,0-1.39.64,2.7,2.7,0,0,0-.5,1.75,2.64,2.64,0,0,0,.5,1.73,1.7,1.7,0,0,0,1.4.61A1.68,1.68,0,0,0,96,145.53Z"/><path class="cls-4" d="M99.61,137.65h1.53V139H99.61Zm.12,9.45v-6.58H101v6.58Z"/><path class="cls-4" d="M103,147.1v-9.61h1.3v9.61Z"/><path class="cls-4" d="M111.82,143.84h-4.7q.06,2.31,2.1,2.31a3.31,3.31,0,0,0,2.08-.74l.4.94a3.29,3.29,0,0,1-1.13.62,4.34,4.34,0,0,1-1.38.23,3.36,3.36,0,0,1-2.48-.91,3.4,3.4,0,0,1-.9-2.49,4,4,0,0,1,.4-1.79,3,3,0,0,1,1.12-1.21,3.08,3.08,0,0,1,1.63-.43,2.64,2.64,0,0,1,2.1.86,3.51,3.51,0,0,1,.76,2.39Zm-4-2.05a2.17,2.17,0,0,0-.6,1.27h3.49a2,2,0,0,0-.51-1.28,1.57,1.57,0,0,0-1.16-.43A1.68,1.68,0,0,0,107.77,141.79Z"/><path class="cls-4" d="M119.35,137.49v9.61h-1.3V146a2,2,0,0,1-.86.9,2.69,2.69,0,0,1-1.32.32,2.73,2.73,0,0,1-1.52-.44,2.85,2.85,0,0,1-1-1.2,4.25,4.25,0,0,1-.37-1.8,4.06,4.06,0,0,1,.37-1.79,2.77,2.77,0,0,1,1-1.19,2.88,2.88,0,0,1,1.54-.41,2.67,2.67,0,0,1,1.31.31,2,2,0,0,1,.85.89v-4.08Zm-1.79,8a2.77,2.77,0,0,0,.49-1.74,2.82,2.82,0,0,0-.49-1.75,1.68,1.68,0,0,0-1.38-.62,1.7,1.7,0,0,0-1.4.62,2.61,2.61,0,0,0-.51,1.72,2.73,2.73,0,0,0,.51,1.76,1.66,1.66,0,0,0,1.39.63A1.68,1.68,0,0,0,117.56,145.53Z"/><path class="cls-4" d="M126.48,141.54v3.3a1.29,1.29,0,0,0,.29,1,1.14,1.14,0,0,0,.82.29,2.37,2.37,0,0,0,.69-.11v1.07a2.93,2.93,0,0,1-1,.15,2.15,2.15,0,0,1-1.58-.58,2.31,2.31,0,0,1-.56-1.67v-3.41h-1.28v-1h1.28v-1.64l1.32-.46v2.1h1.82v1Z"/><path class="cls-4" d="M130.65,146.78a2.82,2.82,0,0,1-1.13-1.19,3.79,3.79,0,0,1-.4-1.8,3.86,3.86,0,0,1,.4-1.81,2.79,2.79,0,0,1,1.13-1.2,3.69,3.69,0,0,1,3.38,0,2.85,2.85,0,0,1,1.13,1.2,4,4,0,0,1,.4,1.81,3.92,3.92,0,0,1-.4,1.8,2.88,2.88,0,0,1-1.13,1.19,3.61,3.61,0,0,1-3.38,0Zm3.08-1.23a2.78,2.78,0,0,0,.48-1.76,2.72,2.72,0,0,0-.49-1.75,1.65,1.65,0,0,0-1.38-.62A1.68,1.68,0,0,0,131,142a3.36,3.36,0,0,0,0,3.51,1.92,1.92,0,0,0,2.79,0Z"/><path class="cls-4" d="M140.58,147.1v-9.61h1.31v9.61Z"/><path class="cls-4" d="M145,146.78a2.82,2.82,0,0,1-1.13-1.19,3.79,3.79,0,0,1-.4-1.8,3.86,3.86,0,0,1,.4-1.81,2.79,2.79,0,0,1,1.13-1.2,3.69,3.69,0,0,1,3.38,0,2.85,2.85,0,0,1,1.13,1.2,4,4,0,0,1,.4,1.81,3.92,3.92,0,0,1-.4,1.8,2.88,2.88,0,0,1-1.13,1.19,3.61,3.61,0,0,1-3.38,0Zm3.08-1.23a2.78,2.78,0,0,0,.48-1.76A2.72,2.72,0,0,0,148,142a1.65,1.65,0,0,0-1.38-.62,1.68,1.68,0,0,0-1.39.62,3.36,3.36,0,0,0,0,3.51,1.92,1.92,0,0,0,2.79,0Z"/><path class="cls-4" d="M157.43,140.52v6.58h-1.31V146a2.06,2.06,0,0,1-.85.9,2.73,2.73,0,0,1-1.33.32,2.76,2.76,0,0,1-1.53-.42,2.82,2.82,0,0,1-1-1.18,4.17,4.17,0,0,1-.36-1.79,4.11,4.11,0,0,1,.37-1.8,2.85,2.85,0,0,1,1-1.21,2.73,2.73,0,0,1,1.52-.43,2.58,2.58,0,0,1,1.32.32,2.14,2.14,0,0,1,.86.9v-1.07Zm-1.8,5a3.35,3.35,0,0,0,0-3.49,1.68,1.68,0,0,0-1.39-.62,1.66,1.66,0,0,0-1.39.64,2.7,2.7,0,0,0-.5,1.75,2.64,2.64,0,0,0,.5,1.73,1.7,1.7,0,0,0,1.4.61A1.68,1.68,0,0,0,155.63,145.53Z"/><path class="cls-4" d="M165.38,137.49v9.61h-1.31V146a2.06,2.06,0,0,1-.85.9,2.86,2.86,0,0,1-2.84-.12,2.78,2.78,0,0,1-1-1.2,4.11,4.11,0,0,1-.37-1.8,4.21,4.21,0,0,1,.36-1.79,2.69,2.69,0,0,1,2.56-1.6,2.64,2.64,0,0,1,1.31.31,2,2,0,0,1,.86.89v-4.08Zm-1.8,8a2.71,2.71,0,0,0,.49-1.74,2.76,2.76,0,0,0-.49-1.75,1.65,1.65,0,0,0-1.38-.62,1.72,1.72,0,0,0-1.4.62,2.67,2.67,0,0,0-.5,1.72,2.79,2.79,0,0,0,.5,1.76,1.69,1.69,0,0,0,1.39.63A1.67,1.67,0,0,0,163.58,145.53Z"/></svg>