<svg id="Layer_1" data-name="Layer 1" xmlns="http://www.w3.org/2000/svg" viewBox="0 0 250 250"><defs><style>.cls-1{fill:none;}.cls-2{fill:#3f3f3f;}.cls-3,.cls-4{fill:#e0e0e0;}.cls-3{opacity:0.7;}</style></defs><title>failed_to_load_medium</title><path class="cls-1" d="M106,101h48v48H106Z"/><rect class="cls-2" x="-2.5" y="-51.05" width="255" height="352.1"/><path class="cls-3" d="M139.3,106a23.82,23.82,0,0,0-14.3-5,20.93,20.93,0,0,0-5.1.63l12.68,12.67C132.58,114.44,139.3,106,139.3,106Zm-25-6.84-1.62,1.61,2.49,2.49a28.63,28.63,0,0,0-4.6,2.74l14.3,17.77h0l4.84-6,4.11,4.11,1.61-1.62C135.44,120.41,114.31,99.15,114.31,99.15Z"/><path class="cls-4" d="M78,150.74V139.92h6.88v1.29H79.52v3.39h5v1.29h-5v4.85Z"/><path class="cls-4" d="M93.32,143.08v7.66H91.8v-1.3a2.39,2.39,0,0,1-1,1,3.09,3.09,0,0,1-1.55.37,3.22,3.22,0,0,1-1.78-.49,3.28,3.28,0,0,1-1.2-1.37,5.35,5.35,0,0,1,0-4.18,3.35,3.35,0,0,1,1.21-1.41,3.23,3.23,0,0,1,1.76-.5,3.05,3.05,0,0,1,1.54.37,2.52,2.52,0,0,1,1,1.06v-1.25Zm-2.1,5.83a3.86,3.86,0,0,0,0-4.07,2,2,0,0,0-1.61-.71,1.93,1.93,0,0,0-1.62.74,3.2,3.2,0,0,0-.59,2,3.11,3.11,0,0,0,.59,2,2,2,0,0,0,1.63.71A1.92,1.92,0,0,0,91.22,148.91Z"/><path class="cls-4" d="M95.43,139.73h1.78v1.62H95.43Zm.14,11v-7.66h1.52v7.66Z"/><path class="cls-4" d="M99.34,150.74V139.55h1.52v11.19Z"/><path class="cls-4" d="M109.65,146.94h-5.48c0,1.8.87,2.69,2.45,2.69a3.85,3.85,0,0,0,2.42-.86l.47,1.09a3.51,3.51,0,0,1-1.31.72,5,5,0,0,1-1.61.27,3.65,3.65,0,0,1-3.94-3.95,4.56,4.56,0,0,1,.47-2.09,3.41,3.41,0,0,1,1.3-1.41,3.64,3.64,0,0,1,1.9-.5,3.09,3.09,0,0,1,2.44,1,4.07,4.07,0,0,1,.89,2.78Zm-4.72-2.39a2.61,2.61,0,0,0-.7,1.48h4.06a2.31,2.31,0,0,0-.59-1.48,1.79,1.79,0,0,0-1.35-.51A2,2,0,0,0,104.93,144.55Z"/><path class="cls-4" d="M118.42,139.55v11.19H116.9v-1.3a2.32,2.32,0,0,1-1,1,3.12,3.12,0,0,1-1.55.37,3.2,3.2,0,0,1-1.76-.5,3.35,3.35,0,0,1-1.21-1.41,4.76,4.76,0,0,1-.43-2.09,4.86,4.86,0,0,1,.42-2.08,3.2,3.2,0,0,1,1.2-1.39,3.27,3.27,0,0,1,1.78-.48,3.14,3.14,0,0,1,1.53.36,2.39,2.39,0,0,1,1,1v-4.75Zm-2.09,9.36a3.9,3.9,0,0,0,0-4.06,1.92,1.92,0,0,0-1.6-.72,2,2,0,0,0-1.64.71,3.1,3.1,0,0,0-.58,2,3.23,3.23,0,0,0,.58,2.05,2.17,2.17,0,0,0,3.24,0Z"/><path class="cls-4" d="M126.73,144.27v3.84a1.5,1.5,0,0,0,.34,1.12,1.29,1.29,0,0,0,1,.33,2.82,2.82,0,0,0,.8-.12v1.24a3.33,3.33,0,0,1-1.14.17,2.45,2.45,0,0,1-1.84-.67,2.67,2.67,0,0,1-.65-1.94v-4H123.7v-1.19h1.49v-1.92l1.54-.53v2.45h2.11v1.19Z"/><path class="cls-4" d="M131.58,150.36a3.26,3.26,0,0,1-1.32-1.38,5,5,0,0,1,0-4.2,3.31,3.31,0,0,1,1.32-1.4,4.26,4.26,0,0,1,3.93,0,3.31,3.31,0,0,1,1.32,1.4,5,5,0,0,1,0,4.2,3.26,3.26,0,0,1-1.32,1.38,4.19,4.19,0,0,1-3.93,0Zm3.59-1.43a4,4,0,0,0,0-4.09,2.19,2.19,0,0,0-3.23,0,3.92,3.92,0,0,0,0,4.09,2.24,2.24,0,0,0,3.25,0Z"/><path class="cls-4" d="M143.15,150.74V139.55h1.52v11.19Z"/><path class="cls-4" d="M148.24,150.36a3.24,3.24,0,0,1-1.31-1.38,4.93,4.93,0,0,1,0-4.2,3.29,3.29,0,0,1,1.31-1.4,4,4,0,0,1,2-.48,3.93,3.93,0,0,1,2,.48,3.31,3.31,0,0,1,1.32,1.4,5,5,0,0,1,0,4.2,3.26,3.26,0,0,1-1.32,1.38,3.83,3.83,0,0,1-2,.49A3.88,3.88,0,0,1,148.24,150.36Zm3.59-1.43a3.92,3.92,0,0,0,0-4.09,1.94,1.94,0,0,0-1.6-.71,2,2,0,0,0-1.63.71,3.22,3.22,0,0,0-.57,2,3.17,3.17,0,0,0,.57,2.05,2.22,2.22,0,0,0,3.24,0Z"/><path class="cls-4" d="M162.77,143.08v7.66h-1.52v-1.3a2.39,2.39,0,0,1-1,1,3.08,3.08,0,0,1-1.54.37,3.23,3.23,0,0,1-1.79-.49,3.19,3.19,0,0,1-1.19-1.37,4.71,4.71,0,0,1-.43-2.08,4.84,4.84,0,0,1,.43-2.1,3.35,3.35,0,0,1,1.21-1.41,3.24,3.24,0,0,1,1.77-.5,3,3,0,0,1,1.53.37,2.52,2.52,0,0,1,1,1.06v-1.25Zm-2.09,5.83a3.92,3.92,0,0,0,0-4.07,2,2,0,0,0-1.62-.71,1.93,1.93,0,0,0-1.62.74,3.2,3.2,0,0,0-.59,2,3.11,3.11,0,0,0,.59,2,2,2,0,0,0,1.63.71A1.94,1.94,0,0,0,160.68,148.91Z"/><path class="cls-4" d="M172,139.55v11.19h-1.52v-1.3a2.39,2.39,0,0,1-1,1,3.08,3.08,0,0,1-1.54.37,3.24,3.24,0,0,1-1.77-.5,3.42,3.42,0,0,1-1.21-1.41,4.9,4.9,0,0,1-.43-2.09,4.71,4.71,0,0,1,.43-2.08,3.25,3.25,0,0,1,1.19-1.39,3.3,3.3,0,0,1,1.79-.48,3.17,3.17,0,0,1,1.53.36,2.32,2.32,0,0,1,1,1v-4.75Zm-2.09,9.36a3.9,3.9,0,0,0,0-4.06,1.94,1.94,0,0,0-1.61-.72,2,2,0,0,0-1.63.71,3.11,3.11,0,0,0-.59,2,3.23,3.23,0,0,0,.59,2.05,2.17,2.17,0,0,0,3.24,0Z"/></svg>