<svg id="Layer_1" data-name="Layer 1" xmlns="http://www.w3.org/2000/svg" width="250" height="250" viewBox="0 0 250 250"><defs><style>.cls-1{fill:none;}.cls-2{fill:#3f3f3f;}.cls-3,.cls-4{fill:#e0e0e0;}.cls-3{opacity:0.7;}</style></defs><title>failed_to_load_sq_small</title><path class="cls-1" d="M106,101h48v48H106Z"/><rect class="cls-2" x="-2.5" y="-51.05" width="255" height="352.1"/><path class="cls-3" d="M134.8,112a16.32,16.32,0,0,0-9.8-3.41,14.24,14.24,0,0,0-3.49.43l8.69,8.69C130.2,117.76,134.8,112,134.8,112Zm-17.13-4.69-1.11,1.11,1.71,1.7a19.35,19.35,0,0,0-3.15,1.88l9.79,12.18h0l3.33-4.09,2.81,2.81,1.11-1.1C132.16,121.85,117.67,107.28,117.67,107.28Z"/><path class="cls-4" d="M92.77,142.65v-7.43h4.71v.89H93.83v2.32h3.44v.89H93.83v3.33Z"/><path class="cls-4" d="M103.28,137.39v5.26h-1v-.9a1.63,1.63,0,0,1-.68.72,2.24,2.24,0,0,1-1.06.25,2.15,2.15,0,0,1-1.22-.34,2.1,2.1,0,0,1-.82-.94,3.19,3.19,0,0,1-.3-1.42,3.31,3.31,0,0,1,.3-1.44,2.33,2.33,0,0,1,.83-1,2.19,2.19,0,0,1,1.21-.34,2.09,2.09,0,0,1,1,.25,1.68,1.68,0,0,1,.69.73v-.86Zm-1.43,4a2.69,2.69,0,0,0,0-2.79,1.36,1.36,0,0,0-1.11-.49,1.34,1.34,0,0,0-1.11.51,2.16,2.16,0,0,0-.4,1.4,2.07,2.07,0,0,0,.4,1.37,1.36,1.36,0,0,0,1.12.49A1.32,1.32,0,0,0,101.85,141.39Z"/><path class="cls-4" d="M104.73,135.1H106v1.1h-1.22Zm.1,7.55v-5.26h1v5.26Z"/><path class="cls-4" d="M107.41,142.65V135h1v7.68Z"/><path class="cls-4" d="M114.48,140h-3.75c0,1.23.59,1.84,1.67,1.84a2.58,2.58,0,0,0,1.66-.59l.32.75a2.58,2.58,0,0,1-.9.5,3.47,3.47,0,0,1-1.1.18,2.64,2.64,0,0,1-2-.73,2.68,2.68,0,0,1-.72-2,3.14,3.14,0,0,1,.32-1.43,2.32,2.32,0,0,1,.89-1,2.48,2.48,0,0,1,1.31-.34,2.13,2.13,0,0,1,1.67.69,2.78,2.78,0,0,1,.61,1.9Zm-3.23-1.64a1.75,1.75,0,0,0-.48,1h2.78a1.59,1.59,0,0,0-.41-1,1.24,1.24,0,0,0-.92-.35A1.37,1.37,0,0,0,111.25,138.4Z"/><path class="cls-4" d="M120.49,135v7.68h-1v-.9a1.63,1.63,0,0,1-.68.72,2.27,2.27,0,0,1-1.06.25,2.17,2.17,0,0,1-1.21-.35,2.29,2.29,0,0,1-.83-1,3.56,3.56,0,0,1,0-2.86,2.17,2.17,0,0,1,.81-1,2.26,2.26,0,0,1,1.23-.33,2.14,2.14,0,0,1,1.05.25,1.56,1.56,0,0,1,.68.71V135Zm-1.43,6.42a2.67,2.67,0,0,0,0-2.78,1.33,1.33,0,0,0-1.1-.5,1.39,1.39,0,0,0-1.12.49,2.12,2.12,0,0,0-.4,1.38,2.2,2.2,0,0,0,.4,1.4,1.49,1.49,0,0,0,2.22,0Z"/><path class="cls-4" d="M126.18,138.2v2.64a1,1,0,0,0,.24.77.88.88,0,0,0,.65.22,1.79,1.79,0,0,0,.55-.08v.85a2.37,2.37,0,0,1-.78.12,1.67,1.67,0,0,1-1.26-.46,1.83,1.83,0,0,1-.45-1.33V138.2h-1v-.81h1v-1.31l1.05-.37v1.68h1.45v.81Z"/><path class="cls-4" d="M129.51,142.38a2.21,2.21,0,0,1-.9-.94,3,3,0,0,1-.32-1.44,3.07,3.07,0,0,1,.32-1.45,2.23,2.23,0,0,1,.9-1,2.93,2.93,0,0,1,2.7,0,2.23,2.23,0,0,1,.9,1,3.19,3.19,0,0,1,.32,1.45,3.12,3.12,0,0,1-.32,1.44,2.21,2.21,0,0,1-.9.94,2.85,2.85,0,0,1-2.7,0Zm2.46-1a2.26,2.26,0,0,0,.38-1.41,2.2,2.2,0,0,0-.39-1.4,1.34,1.34,0,0,0-1.1-.49,1.36,1.36,0,0,0-1.11.49,2.14,2.14,0,0,0-.4,1.4,2.19,2.19,0,0,0,.39,1.41,1.56,1.56,0,0,0,2.23,0Z"/><path class="cls-4" d="M137.44,142.65V135h1v7.68Z"/><path class="cls-4" d="M140.93,142.38a2.21,2.21,0,0,1-.9-.94,3.12,3.12,0,0,1-.32-1.44,3.19,3.19,0,0,1,.32-1.45,2.23,2.23,0,0,1,.9-1,2.93,2.93,0,0,1,2.7,0,2.23,2.23,0,0,1,.9,1,3.19,3.19,0,0,1,.32,1.45,3.12,3.12,0,0,1-.32,1.44,2.21,2.21,0,0,1-.9.94,2.85,2.85,0,0,1-2.7,0Zm2.46-1a2.73,2.73,0,0,0,0-2.81,1.35,1.35,0,0,0-1.1-.49,1.38,1.38,0,0,0-1.12.49,2.73,2.73,0,0,0,0,2.81,1.55,1.55,0,0,0,2.22,0Z"/><path class="cls-4" d="M150.89,137.39v5.26h-1v-.9a1.63,1.63,0,0,1-.68.72,2.21,2.21,0,0,1-1.06.25,2.19,2.19,0,0,1-2-1.28,3.19,3.19,0,0,1-.29-1.42,3.31,3.31,0,0,1,.3-1.44,2.24,2.24,0,0,1,.82-1,2.19,2.19,0,0,1,1.21-.34,2.1,2.1,0,0,1,1.06.25,1.72,1.72,0,0,1,.68.73v-.86Zm-1.44,4a2.69,2.69,0,0,0,0-2.79,1.36,1.36,0,0,0-1.11-.49,1.34,1.34,0,0,0-1.11.51,2.22,2.22,0,0,0-.4,1.4,2.13,2.13,0,0,0,.4,1.37,1.36,1.36,0,0,0,1.12.49A1.32,1.32,0,0,0,149.45,141.39Z"/><path class="cls-4" d="M157.23,135v7.68h-1v-.9a1.63,1.63,0,0,1-.68.72,2.24,2.24,0,0,1-1.06.25,2.2,2.2,0,0,1-1.21-.35,2.36,2.36,0,0,1-.83-1,3.38,3.38,0,0,1-.29-1.43,3.23,3.23,0,0,1,.29-1.43,2.12,2.12,0,0,1,.82-1,2.23,2.23,0,0,1,1.22-.33,2.09,2.09,0,0,1,1.05.25,1.56,1.56,0,0,1,.68.71V135Zm-1.43,6.42a2.67,2.67,0,0,0,0-2.78,1.33,1.33,0,0,0-1.1-.5,1.39,1.39,0,0,0-1.12.49,2.12,2.12,0,0,0-.4,1.38,2.2,2.2,0,0,0,.4,1.4,1.49,1.49,0,0,0,2.22,0Z"/></svg>