<?xml version="1.0" encoding="utf-8"?>
<!-- Generator: Adobe Illustrator 22.0.0, SVG Export Plug-In . SVG Version: 6.00 Build 0)  -->
<svg version="1.1" id="Layer_1" xmlns="http://www.w3.org/2000/svg" xmlns:xlink="http://www.w3.org/1999/xlink" x="0px" y="0px"
	 width="320px" height="240px" viewBox="0 0 320 240" style="enable-background:new 0 0 320 240;" xml:space="preserve">
<style type="text/css">
	.st0{fill:none;}
	.st1{fill:#3F3F3F;}
	.st2{opacity:0.7;fill:#E0E0E0;}
	.st3{fill:#E0E0E0;}
</style>
<path class="st0" d="M141,96h48v48h-48V96z"/>
<rect x="-16.1" y="-7.5" class="st1" width="352.1" height="255"/>
<g>
	<path class="st2" d="M169.8,107c-0.3-0.3-4.2-3.4-9.8-3.4c-1.3,0-2.5,0.2-3.5,0.4l8.7,8.7C165.2,112.8,169.8,107,169.8,107z
		 M152.7,102.3l-1.1,1.1l1.7,1.7c-1.8,0.9-2.9,1.7-3.2,1.9l9.8,12.2l0,0l0,0l3.3-4.1l2.8,2.8l1.1-1.1
		C167.2,116.9,152.7,102.3,152.7,102.3z"/>
	<g>
		<path class="st3" d="M127.8,137.6v-7.4h4.7v0.9h-3.6v2.3h3.4v0.9h-3.4v3.3H127.8z"/>
		<path class="st3" d="M138.3,132.4v5.3h-1v-0.9c-0.2,0.3-0.4,0.6-0.7,0.7c-0.3,0.2-0.7,0.3-1.1,0.3c-0.5,0-0.9-0.1-1.2-0.3
			c-0.4-0.2-0.6-0.5-0.8-0.9c-0.2-0.4-0.3-0.9-0.3-1.4c0-0.5,0.1-1,0.3-1.4c0.2-0.4,0.5-0.7,0.8-1c0.4-0.2,0.8-0.3,1.2-0.3
			c0.4,0,0.8,0.1,1.1,0.3c0.3,0.2,0.5,0.4,0.7,0.7v-0.9H138.3z M136.8,136.4c0.3-0.3,0.4-0.8,0.4-1.4c0-0.6-0.1-1.1-0.4-1.4
			c-0.3-0.3-0.6-0.5-1.1-0.5c-0.5,0-0.8,0.2-1.1,0.5c-0.3,0.3-0.4,0.8-0.4,1.4c0,0.6,0.1,1,0.4,1.4c0.3,0.3,0.6,0.5,1.1,0.5
			C136.2,136.9,136.6,136.7,136.8,136.4z"/>
		<path class="st3" d="M139.7,130.1h1.2v1.1h-1.2V130.1z M139.8,137.6v-5.3h1v5.3H139.8z"/>
		<path class="st3" d="M142.4,137.6V130h1v7.7H142.4z"/>
		<path class="st3" d="M149.5,135h-3.8c0,1.2,0.6,1.8,1.7,1.8c0.6,0,1.2-0.2,1.7-0.6l0.3,0.8c-0.2,0.2-0.5,0.4-0.9,0.5
			c-0.4,0.1-0.7,0.2-1.1,0.2c-0.8,0-1.5-0.2-2-0.7c-0.5-0.5-0.7-1.1-0.7-2c0-0.5,0.1-1,0.3-1.4c0.2-0.4,0.5-0.7,0.9-1
			c0.4-0.2,0.8-0.3,1.3-0.3c0.7,0,1.3,0.2,1.7,0.7c0.4,0.5,0.6,1.1,0.6,1.9V135z M146.2,133.4c-0.3,0.2-0.4,0.6-0.5,1h2.8
			c0-0.4-0.2-0.8-0.4-1c-0.2-0.2-0.5-0.3-0.9-0.3C146.8,133,146.5,133.2,146.2,133.4z"/>
		<path class="st3" d="M155.5,130v7.7h-1v-0.9c-0.2,0.3-0.4,0.6-0.7,0.7c-0.3,0.2-0.7,0.3-1.1,0.3c-0.5,0-0.9-0.1-1.2-0.3
			c-0.4-0.2-0.6-0.5-0.8-1c-0.2-0.4-0.3-0.9-0.3-1.4s0.1-1,0.3-1.4c0.2-0.4,0.5-0.7,0.8-0.9c0.4-0.2,0.8-0.3,1.2-0.3
			c0.4,0,0.7,0.1,1,0.2c0.3,0.2,0.5,0.4,0.7,0.7V130H155.5z M154.1,136.4c0.3-0.3,0.4-0.8,0.4-1.4c0-0.6-0.1-1.1-0.4-1.4
			c-0.3-0.3-0.6-0.5-1.1-0.5c-0.5,0-0.9,0.2-1.1,0.5c-0.3,0.3-0.4,0.8-0.4,1.4c0,0.6,0.1,1.1,0.4,1.4c0.3,0.3,0.6,0.5,1.1,0.5
			C153.4,136.9,153.8,136.7,154.1,136.4z"/>
		<path class="st3" d="M161.2,133.2v2.6c0,0.4,0.1,0.6,0.2,0.8s0.4,0.2,0.7,0.2c0.2,0,0.4,0,0.6-0.1v0.9c-0.2,0.1-0.5,0.1-0.8,0.1
			c-0.5,0-1-0.2-1.3-0.5c-0.3-0.3-0.4-0.8-0.4-1.3v-2.7h-1v-0.8h1v-1.3l1.1-0.4v1.7h1.4v0.8H161.2z"/>
		<path class="st3" d="M164.5,137.4c-0.4-0.2-0.7-0.5-0.9-0.9s-0.3-0.9-0.3-1.4c0-0.5,0.1-1,0.3-1.4c0.2-0.4,0.5-0.7,0.9-1
			c0.4-0.2,0.8-0.3,1.4-0.3c0.5,0,1,0.1,1.3,0.3c0.4,0.2,0.7,0.5,0.9,1c0.2,0.4,0.3,0.9,0.3,1.4c0,0.5-0.1,1-0.3,1.4
			c-0.2,0.4-0.5,0.7-0.9,0.9c-0.4,0.2-0.8,0.3-1.3,0.3C165.3,137.7,164.9,137.6,164.5,137.4z M167,136.4c0.3-0.3,0.4-0.8,0.4-1.4
			c0-0.6-0.1-1.1-0.4-1.4c-0.3-0.3-0.6-0.5-1.1-0.5c-0.5,0-0.9,0.2-1.1,0.5c-0.3,0.3-0.4,0.8-0.4,1.4c0,0.6,0.1,1.1,0.4,1.4
			c0.3,0.3,0.6,0.5,1.1,0.5C166.3,136.9,166.7,136.7,167,136.4z"/>
		<path class="st3" d="M172.4,137.6V130h1v7.7H172.4z"/>
		<path class="st3" d="M175.9,137.4c-0.4-0.2-0.7-0.5-0.9-0.9s-0.3-0.9-0.3-1.4c0-0.5,0.1-1,0.3-1.4c0.2-0.4,0.5-0.7,0.9-1
			c0.4-0.2,0.8-0.3,1.4-0.3c0.5,0,1,0.1,1.3,0.3c0.4,0.2,0.7,0.5,0.9,1c0.2,0.4,0.3,0.9,0.3,1.4c0,0.5-0.1,1-0.3,1.4
			c-0.2,0.4-0.5,0.7-0.9,0.9c-0.4,0.2-0.8,0.3-1.3,0.3C176.8,137.7,176.3,137.6,175.9,137.4z M178.4,136.4c0.3-0.3,0.4-0.8,0.4-1.4
			c0-0.6-0.1-1.1-0.4-1.4c-0.3-0.3-0.6-0.5-1.1-0.5c-0.5,0-0.9,0.2-1.1,0.5c-0.3,0.3-0.4,0.8-0.4,1.4c0,0.6,0.1,1.1,0.4,1.4
			c0.3,0.3,0.6,0.5,1.1,0.5C177.8,136.9,178.1,136.7,178.4,136.4z"/>
		<path class="st3" d="M185.9,132.4v5.3h-1v-0.9c-0.2,0.3-0.4,0.6-0.7,0.7c-0.3,0.2-0.7,0.3-1.1,0.3c-0.5,0-0.9-0.1-1.2-0.3
			c-0.4-0.2-0.6-0.5-0.8-0.9c-0.2-0.4-0.3-0.9-0.3-1.4c0-0.5,0.1-1,0.3-1.4c0.2-0.4,0.5-0.7,0.8-1s0.8-0.3,1.2-0.3
			c0.4,0,0.8,0.1,1.1,0.3c0.3,0.2,0.5,0.4,0.7,0.7v-0.9H185.9z M184.5,136.4c0.3-0.3,0.4-0.8,0.4-1.4c0-0.6-0.1-1.1-0.4-1.4
			c-0.3-0.3-0.6-0.5-1.1-0.5c-0.5,0-0.8,0.2-1.1,0.5c-0.3,0.3-0.4,0.8-0.4,1.4c0,0.6,0.1,1,0.4,1.4c0.3,0.3,0.6,0.5,1.1,0.5
			C183.8,136.9,184.2,136.7,184.5,136.4z"/>
		<path class="st3" d="M192.2,130v7.7h-1v-0.9c-0.2,0.3-0.4,0.6-0.7,0.7c-0.3,0.2-0.7,0.3-1.1,0.3c-0.5,0-0.9-0.1-1.2-0.3
			s-0.6-0.5-0.8-1c-0.2-0.4-0.3-0.9-0.3-1.4s0.1-1,0.3-1.4c0.2-0.4,0.5-0.7,0.8-0.9c0.4-0.2,0.8-0.3,1.2-0.3c0.4,0,0.7,0.1,1,0.2
			c0.3,0.2,0.5,0.4,0.7,0.7V130H192.2z M190.8,136.4c0.3-0.3,0.4-0.8,0.4-1.4c0-0.6-0.1-1.1-0.4-1.4c-0.3-0.3-0.6-0.5-1.1-0.5
			c-0.5,0-0.9,0.2-1.1,0.5c-0.3,0.3-0.4,0.8-0.4,1.4c0,0.6,0.1,1.1,0.4,1.4s0.6,0.5,1.1,0.5C190.2,136.9,190.5,136.7,190.8,136.4z"
			/>
	</g>
</g>
</svg>
