<svg id="Layer_1" data-name="Layer 1" xmlns="http://www.w3.org/2000/svg" xmlns:xlink="http://www.w3.org/1999/xlink" width="829" height="215" viewBox="0 0 829 215"><defs><style>.cls-1{fill:none;}.cls-2{clip-path:url(#clip-path);}.cls-3{fill:#191919;}.cls-4{fill:#7a0600;}.cls-5{fill:#c60c0c;}.cls-6{fill:#e10d37;}.cls-7{fill:#fff;}</style><clipPath id="clip-path"><path class="cls-1" d="M269.26,35.73A101.25,101.25,0,0,0,197.49,6H104.05A101.5,101.5,0,0,0,53.27,195.39c1.51.9,3.06,1.76,4.65,2.55,2.44,1.24,5,2.41,7.54,3.45l.52.2a101.28,101.28,0,0,0,27.29,6.83l.8.09.39,0c3.15.3,6.35.46,9.59.46h93.44A100.51,100.51,0,0,0,238,200.52c2.07-.86,4.1-1.82,6.1-2.86,2.38-1.24,4.68-2.54,6.92-4a101.48,101.48,0,0,0,18.2-158Z"/></clipPath></defs><title>stage logo side-cut</title><g class="cls-2"><circle class="cls-3" cx="149.91" cy="151.97" r="133.88"/><circle class="cls-1" cx="149.91" cy="151.97" r="102.09"/><path class="cls-3" d="M277,218.14a188.66,188.66,0,0,1-246.81,6.28h0q-3.7-3.06-7.25-6.28C68.61,146.85,120,40,149.58-108.21v-.06c.12-.54.23-1.09.33-1.64C179.45,39.21,231,146.58,277,218.14Z"/><path class="cls-4" d="M128.29,5.65a.43.43,0,0,1,0,0c-35,176.75-96.17,304-150.6,388.86a223.42,223.42,0,0,1-17-17.27s0,0,0,0a222.79,222.79,0,0,1-56-148C-95.34,105.73,4.77,5.61,128.28,5.61,128.28,5.63,128.28,5.64,128.29,5.65Z"/><path class="cls-4" d="M173.21,5.65a.43.43,0,0,0,0,0c35,176.75,96.17,304,150.6,388.86a223.42,223.42,0,0,0,17-17.27s0,0,0,0a222.79,222.79,0,0,0,56-148c0-123.51-100.12-223.63-223.62-223.63C173.22,5.63,173.22,5.64,173.21,5.65Z"/><path class="cls-5" d="M126,5.61c-6.78,0-12.94-2.29-19.46-1.35l6.38-19.18-89.84-41L-100.45-6.11l2.11,106,85.62,60.52a139,139,0,0,0,34.13,77.14s0,0,0,0A138.24,138.24,0,0,0,32,248.29C66,195.37,104.14,116,126,5.67c0,0,0,0,0,0A0,0,0,0,1,126,5.61Z"/><path class="cls-6" d="M117.05-4.13c-6.66-1.26-12.29-4.66-18.87-4.95L108-26.74,27.34-83.68l-130.6,26L-120.88,46.78-48,122.15A139,139,0,0,0-28.8,204.3h0a139.59,139.59,0,0,0,8.42,12.56C22.83,171.17,75.08,100.22,117-4.08c0,0,0,0,0,0Z"/><path class="cls-5" d="M326.16-55.41c-9.75-2.92-70.69-11.7-79.47-9.26s-58,21.94-58,21.94l-6.83,39L185.31,6c-3.23-.22-6.5-.34-9.8-.34v0c21.84,110.29,60,189.72,94,242.65A139.19,139.19,0,0,0,315,145.14c0-.81,0-1.62,0-2.42l17.48-20.65,1-52.66,2.43-53.63S335.91-52.48,326.16-55.41Z"/><path class="cls-6" d="M184.29-4.74C191-6,196.59-9.4,203.17-9.69l-9.83-17.66L274-84.28,404.6-58.34,422.22,46.17l-72.88,75.37a139,139,0,0,1-19.2,82.15h0a139.59,139.59,0,0,1-8.42,12.56C278.52,170.56,226.26,99.61,184.3-4.69v0Z"/></g><path class="cls-7" d="M374.32,170.49q-17.51,0-29.45-7.83A41.84,41.84,0,0,1,328,141.38l19.86-11.61q6.9,18,27.09,18,9.76,0,14.31-3.53a11.13,11.13,0,0,0-1-18.6q-5.57-3.44-19.86-7.48a121.68,121.68,0,0,1-13.38-4.72,57.48,57.48,0,0,1-10.94-6.31,25.75,25.75,0,0,1-8.33-10A32.88,32.88,0,0,1,332.92,83q0-16,11.36-25.5T371.63,48a45.41,45.41,0,0,1,25.15,7A46.89,46.89,0,0,1,413.7,74.4L394.18,85.68q-7.08-15.15-22.55-15.15-7.25,0-11.36,3.28a10.37,10.37,0,0,0-4.12,8.5,10.74,10.74,0,0,0,4.62,9q4.64,3.45,17.76,7.48,5.39,1.7,8.16,2.61t7.57,2.86a45.63,45.63,0,0,1,7.4,3.62,59.66,59.66,0,0,1,6,4.54,23.42,23.42,0,0,1,5.13,5.89A33.67,33.67,0,0,1,417.06,135q0,16.34-11.86,25.92T374.32,170.49Z"/><path class="cls-7" d="M505.91,50.34V72.55h-31.8v95.58H450.89V72.55H419.25V50.34Z"/><path class="cls-7" d="M587.71,168.13l-7.49-21.2H531.83l-7.06,21.2H499.69L540.92,50.34H569.7l41.55,117.79ZM539.4,125.22h33.15l-17-48.12Z"/><path class="cls-7" d="M734.1,104.86V114q0,25.24-16.16,40.89t-41.73,15.65q-27.26,0-45.18-17.75T613.11,109.4q0-25.74,17.75-43.58t44-17.84A61.5,61.5,0,0,1,705,55.47a55.58,55.58,0,0,1,21.21,19.94L706.33,86.86a31.27,31.27,0,0,0-12.7-11.78,39.54,39.54,0,0,0-18.94-4.55q-16.83,0-27.68,11T636.16,109.4q0,16.66,11,27.52t29.2,10.85q13.46,0,22.29-6a29.75,29.75,0,0,0,12-16.41H675V104.86Z"/><path class="cls-7" d="M773.81,145.92h49.64v22.21H750.58V50.34h72V72.55h-48.8V97.63H818.4V119.5H773.81Z"/></svg>