<svg id="Layer_1" data-name="Layer 1" xmlns="http://www.w3.org/2000/svg" xmlns:xlink="http://www.w3.org/1999/xlink" width="958" height="215" viewBox="0 0 958 215"><defs><style>.cls-1{fill:none;}.cls-2{clip-path:url(#clip-path);}.cls-3{fill:#191919;}.cls-4{fill:#7a0600;}.cls-5{fill:#c60c0c;}.cls-6{fill:#e10d37;}.cls-7{fill:#fff;}</style><clipPath id="clip-path"><path class="cls-1" d="M284.26,35.79A101.13,101.13,0,0,0,212.55,6.08H119.19A101.42,101.42,0,0,0,68.45,195.32c1.51.89,3.06,1.75,4.65,2.55,2.44,1.24,5,2.41,7.53,3.44l.52.21a101.59,101.59,0,0,0,27.27,6.82l.8.09.38,0c3.16.3,6.36.46,9.59.46h93.36a100.52,100.52,0,0,0,40.52-8.47c2.07-.86,4.1-1.83,6.09-2.86,2.38-1.24,4.69-2.55,6.92-4A101.4,101.4,0,0,0,284.26,35.79Z"/></clipPath></defs><title>stage logo side-01</title><g class="cls-2"><circle class="cls-3" cx="165.02" cy="151.93" r="133.77"/><circle class="cls-1" cx="165.02" cy="151.93" r="102.01"/><path class="cls-3" d="M292,218.05a188.51,188.51,0,0,1-246.61,6.28h0q-3.7-3-7.25-6.27c45.7-71.23,97-178,126.6-326.08,0,0,0,0,0-.07l.33-1.63C194.52,39.26,246.07,146.55,292,218.05Z"/><path class="cls-4" d="M143.41,5.74a.43.43,0,0,0,0,0c-35,176.59-96.09,303.78-150.47,388.53a223,223,0,0,1-17-17.25s0,0,0,0A222.58,222.58,0,0,1-80,229.14C-80,105.74,20,5.69,143.4,5.69A.09.09,0,0,0,143.41,5.74Z"/><path class="cls-4" d="M188.29,5.74a.43.43,0,0,1,0,0c35,176.59,96.1,303.78,150.48,388.53a222.88,222.88,0,0,0,17-17.25s0,0,0,0a222.58,222.58,0,0,0,56-147.92c0-123.4-100-223.45-223.44-223.45A.09.09,0,0,1,188.29,5.74Z"/><path class="cls-5" d="M141.1,5.69c-6.77,0-12.93-2.28-19.44-1.35L128-14.82,38.26-55.74-85.14-6-83,99.86,2.51,160.32a138.86,138.86,0,0,0,34.11,77.09h0a138.09,138.09,0,0,0,10.6,10.77C81.15,195.3,119.28,115.94,141.1,5.75c0,0,0,0,0,0A0,0,0,0,1,141.1,5.69Z"/><path class="cls-6" d="M132.18-4C125.52-5.3,119.9-8.69,113.32-9l9.82-17.64L42.55-83.52-87.95-57.6l-17.6,104.43,72.82,75.31a138.86,138.86,0,0,0,19.18,82.08h0a140.87,140.87,0,0,0,8.42,12.55C38,171.12,90.25,100.23,132.17-4v0Z"/><path class="cls-5" d="M341.12-55.27c-9.74-2.93-70.64-11.7-79.41-9.26s-58,21.92-58,21.92l-6.82,39L200.39,6q-4.86-.35-9.79-.35v0c21.83,110.21,60,189.57,93.89,242.46A139,139,0,0,0,330,145.11c0-.81,0-1.62,0-2.42l17.46-20.64,1-52.61,2.43-53.59S350.86-52.35,341.12-55.27Z"/><path class="cls-6" d="M199.37-4.65C206-5.91,211.65-9.3,218.23-9.59L208.4-27.24,289-84.13,419.5-58.2,437.1,46.22l-72.82,75.31a138.83,138.83,0,0,1-19.19,82.08h0a135.89,135.89,0,0,1-8.41,12.55C293.51,170.51,241.3,99.62,199.38-4.59a0,0,0,0,1,0,0Z"/></g><path class="cls-7" d="M408.9,175q-19.29,0-32.45-8.62a46.16,46.16,0,0,1-18.55-23.46l21.89-12.8Q387.4,150,409.64,150q10.75,0,15.77-3.9a12.26,12.26,0,0,0-1.12-20.49q-6.12-3.8-21.88-8.25a135.38,135.38,0,0,1-14.74-5.19,63.36,63.36,0,0,1-12.06-7,28.34,28.34,0,0,1-9.17-11,36,36,0,0,1-3.16-15.58q0-17.61,12.52-28.09T405.93,40q15.76,0,27.73,7.7a51.75,51.75,0,0,1,18.63,21.41L430.78,81.54Q423,64.85,405.93,64.85c-5.31,0-9.49,1.2-12.51,3.61a11.45,11.45,0,0,0-4.55,9.37,11.81,11.81,0,0,0,5.1,9.92q5.1,3.81,19.57,8.25,5.93,1.86,9,2.88t8.35,3.15a50.13,50.13,0,0,1,8.16,4,65,65,0,0,1,6.58,5,25.74,25.74,0,0,1,5.65,6.49,36.65,36.65,0,0,1,3.34,8.07A36.21,36.21,0,0,1,456,135.87q0,18-13.07,28.56T408.9,175Z"/><path class="cls-7" d="M553.92,42.6V67.07h-35V172.4H493.28V67.07H458.41V42.6Z"/><path class="cls-7" d="M644.06,172.4,635.8,149H582.48l-7.79,23.36H547.06L592.49,42.6h31.72L670,172.4Zm-53.24-47.28h36.53l-18.73-53Z"/><path class="cls-7" d="M805.37,102.68v10q0,27.83-17.8,45.06t-46,17.25q-30,0-49.79-19.56T672,107.69q0-28.38,19.57-48T740.1,40a67.79,67.79,0,0,1,33.19,8.25,61.16,61.16,0,0,1,23.37,22L774.78,82.84a34.4,34.4,0,0,0-14-13,43.49,43.49,0,0,0-20.86-5q-18.54,0-30.5,12.15t-12,30.69q0,18.35,12.14,30.31t32.18,12q14.84,0,24.57-6.59A32.7,32.7,0,0,0,779.6,125.3H740.28V102.68Z"/><path class="cls-7" d="M849.13,147.93h54.71V172.4h-80.3V42.6h79.37V67.07H849.13V94.7h49.15v24.11H849.13Z"/></svg>