<svg id="Layer_1" data-name="Layer 1" xmlns="http://www.w3.org/2000/svg" width="24" height="24" viewBox="0 0 24 24"><defs><style>.cls-1{fill:#e0e0e0;}</style></defs><title>play-t24-01</title><path class="cls-1" d="M20.18,8.68,7.71,1A3.72,3.72,0,0,0,5.77.43,3.82,3.82,0,0,0,2,4.3V19.7a3.82,3.82,0,0,0,3.77,3.87A3.72,3.72,0,0,0,7.71,23l12.47-7.7a3.94,3.94,0,0,0,0-6.64ZM19,13.33l-6.23,3.85L6.49,21A1.44,1.44,0,0,1,4.33,19.7V4.3A1.44,1.44,0,0,1,6.49,3l6.23,3.85L19,10.67A1.59,1.59,0,0,1,19,13.33Z"/></svg>